# AST/ASF file generated using VICON BodyLanguage
# -----------------------------------------------
:version 1.10
:name VICON
:units
  mass 1.0
  length 0.45
  angle deg
:documentation
   .ast/.asf automatically generated from VICON data using
   VICON BodyBuilder and BodyLanguage model FoxedUp or BRILLIANT.MOD
:root
   order TX TY TZ RX RY RZ
   axis XYZ
   position 0 0 0  
   orientation 0 0 0 
:bonedata
  begin
     id 1 
     name lhipjoint
     direction 0.611823 -0.767273 0.19226 
     length 2.47422 
     axis 0 0 0  XYZ
  end
  begin
     id 2 
     name lfemur
     direction 0.34202 -0.939693 0  
     length 7.40835  
     axis 0 0 20  XYZ
    dof rx ry rz
    limits (-160.0 20.0)
           (-70.0 70.0)
           (-60.0 70.0)
  end
  begin
     id 3 
     name ltibia
     direction 0.34202 -0.939693 0   
     length 8.03679   
     axis 0 0 20   XYZ
    dof rx
    limits (-10.0 170.0)
  end
  begin
     id 4 
     name lfoot
     direction 0.0883598 -0.242766 0.966052   
     length 2.06694   
     axis -90 7.62852e-016 20   XYZ
    dof rx rz
    limits (-45.0 90.0)
           (-70.0 20.0)
  end
  begin
     id 5 
     name ltoes
     direction 1.53617e-011 -4.21699e-011 1   
     length 1.03711   
     axis -90 7.62852e-016 20   XYZ
    dof rx
    limits (-90.0 20.0)
  end
  begin
     id 6 
     name rhipjoint
     direction -0.590066 -0.783143 0.196236   
     length 2.42408  
     axis 0 0 0  XYZ 
  end
  begin
     id 7 
     name rfemur
     direction -0.34202 -0.939693 0   
     length 7.88987   
     axis 0 0 -20   XYZ
    dof rx ry rz
    limits (-160.0 20.0)
           (-70.0 70.0)
           (-70.0 60.0)
  end
  begin
     id 8 
     name rtibia
     direction -0.34202 -0.939693 0   
     length 7.87584   
     axis 0 0 -20   XYZ
    dof rx
    limits (-10.0 170.0)
 end
 begin
     id 9 
     name rfoot
     direction -0.130476 -0.358481 0.924374   
     length 2.21745  
     axis -90 -7.62852e-016 -20   XYZ
    dof rx rz
    limits (-45.0 90.0)
           (-20.0 70.0)
  end
  begin
     id 10 
     name rtoes
     direction 8.20695e-005 8.89091e-005 1   
     length 1.09536   
     axis -90 -7.62852e-016 -20   XYZ
    dof rx
    limits (-90.0 20.0)
  end
  begin
     id 11 
     name lowerback
     direction 0.00981224 0.999875 -0.0124197   
     length 1.94808   
     axis 0 0 0   XYZ
    dof rx ry rz
    limits (-20.0 45.0)
           (-30.0 30.0)
           (-30.0 30.0)
  end
  begin
     id 12 
     name upperback
     direction 0.038911 0.999194 0.00981686   
     length 1.94415   
     axis 0 0 0   XYZ
    dof rx ry rz
    limits (-20.0 45.0)
           (-30.0 30.0)
           (-30.0 30.0)
  end
  begin
     id 13 
     name thorax
     direction 0.0330692 0.999334 0.0154389   
     length 1.94117   
     axis 0 0 0   XYZ
    dof rx ry rz
    limits (-20.0 45.0)
           (-30.0 30.0)
           (-30.0 30.0)
  end
  begin
     id 14 
     name lowerneck
     direction -0.0374305 0.99415 0.10132   
     length 1.87291   
     axis 0 0 0   XYZ
    dof rx ry rz
    limits (-20.0 45.0)
           (-30.0 30.0)
           (-30.0 30.0)
  end
  begin
     id 15 
     name upperneck
     direction 0.0120692 0.985979 -0.166431   
     length 1.89248   
     axis 0 0 0   XYZ
    dof rx ry rz
    limits (-20.0 45.0)
           (-30.0 30.0)
           (-30.0 30.0)
  end
  begin
     id 16
     name head
     direction 0.00629908 0.997708 -0.06737  
     length 1.90559  
     axis 0 0 0   XYZ
    dof rx ry rz
    limits (-20.0 45.0)
           (-30.0 30.0)
           (-30.0 30.0)
  end
  begin
     id 17 
     name lclavicle
     direction 0.961536 0.27308 -0.0295863  
     length 3.52757  
     axis 0 0 0   XYZ
    dof ry rz
    limits (-20.0 10.0)
           (0.0 20.0)
  end
  begin
     id 18 
     name lhumerus
     direction 1 -4.48969e-011 2.61153e-029   
     length 5.14845   
     axis 180 -30 -90   XYZ
    dof rx ry rz
    limits (-60.0 90.0)
           (-90.0 90.0)
           (-90.0 90.0)
  end
  begin
     id 19
     name lradius
     direction 1 -4.4896e-011 -3.37549e-027   
     length 3.43674   
     axis 180 -30 -90   XYZ
    dof rx
    limits (-10.0 170.0)
  end
  begin
     id 20
     name lwrist
     direction 1 -4.48969e-011 2.56952e-028   
     length 1.71837   
     axis -5.12785e-016 90 90   XYZ
    dof ry
    limits (-180.0 0.0)
 end
  begin
     id 21 
     name lhand
     direction 1 -4.49094e-011 5.13905e-028   
     length 0.588709   
     axis -3.27915e-016 90 90   XYZ
    dof rx rz
    limits (-90.0 90.0)
           (-45.0 45.0)
  end
  begin
     id 22 
     name lfingers
     direction 1 -4.48821e-011 1.02781e-027   
     length 0.474633   
     axis -6.5583e-016 90 90   XYZ
    dof rx
    limits (0.0 90.0)
  end
  begin
     id 23
     name lthumb
     direction 0.707107 -6.34922e-011 0.707107   
     length 0.68148   
     axis -90 45 2.85299e-015   XYZ
    dof rx rz
    limits (-45.0 45.0)
           (-45.0 45.0)
  end
  begin
     id 24 
     name rclavicle
     direction -0.940964 0.333844 -0.0559866   
     length 3.55948  
     axis 0 0 0   XYZ 
    dof ry rz
    limits (-10.0 20.0)
           (-20.0 0.0)
  end
  begin
     id 25 
     name rhumerus
     direction -1 -4.48973e-011 3.15259e-027  
     length 5.42185   
     axis 180 30 90   XYZ
    dof rx ry rz
    limits (-90.0 60.0)
           (-90.0 90.0)
           (-90.0 90.0)
  end
  begin
     id 26 
     name rradius
     direction -1 -4.48954e-011 -2.56271e-027   
     length 3.51317   
     axis 180 30 90   XYZ
    dof rx
    limits (-10.0 170.0)
  end
  begin
     id 27 
     name rwrist
     direction -1 -4.48943e-011 2.56952e-028   
     length 1.75658   
     axis -5.12785e-016 -90 -90   XYZ
    dof ry
    limits (-180.0 0.0)
  end
  begin
     id 28
     name rhand
     direction -1 -4.4912e-011 5.13905e-028   
     length 0.663187   
     axis -3.27915e-016 -90 -90   XYZ
    dof rx rz
    limits (-90.0 90.0)
           (-45.0 45.0)
  end
  begin
     id 29
     name rfingers
     direction -1 -4.48914e-011 1.02781e-027   
     length 0.534679   
     axis -6.5583e-016 -90 -90   XYZ
    dof rx
    limits (0.0 90.0)
  end
  begin
     id 30
     name rthumb
     direction -0.707107 -6.35033e-011 0.707107   
     length 0.767695   
     axis -90 -45 -2.85299e-015   XYZ
    dof rx rz
    limits (-45.0 45.0)
           (-45.0 45.0)
  end
:hierarchy
  begin
    root lhipjoint rhipjoint lowerback
    lhipjoint lfemur
    lfemur ltibia
    ltibia lfoot
    lfoot ltoes
    rhipjoint rfemur
    rfemur rtibia
    rtibia rfoot
    rfoot rtoes
    lowerback upperback
    upperback thorax
    thorax lowerneck lclavicle rclavicle
    lowerneck upperneck
    upperneck head
    lclavicle lhumerus
    lhumerus lradius
    lradius lwrist
    lwrist lhand lthumb
    lhand lfingers
    rclavicle rhumerus
    rhumerus rradius
    rradius rwrist
    rwrist rhand rthumb
    rhand rfingers
  end

#!OML:ASF F:\VICON\USERDATA\INSTALL\Justin_a\Justin_a.ASF
:FULLY-SPECIFIED
:DEGREES
2966
root 13.0736 18.013 -8.68521 7.14565 21.218 -2.75304
lowerback 1.43764 5.24424 1.59882
upperback 2.492 6.98996 0.667381
thorax 1.86404 3.51632 -0.180937
lowerneck -4.6337 15.9401 -1.18142
upperneck 33.3747 27.68 -9.0922
head 13.4746 11.4364 0.385696
rclavicle -4.42296e-014 -2.14687e-014
rhumerus -30.5281 -11.2025 -73.0759
rradius 46.5694
rwrist -21.8467
rhand -27.5255 11.8123
rfingers 7.12502
rthumb -0.927648 -18.1654
lclavicle -4.42296e-014 -2.14687e-014
lhumerus -42.6158 18.2541 79.4947
lradius 37.2781
lwrist 8.70954
lhand -19.0372 26.6203
lfingers 7.12502
lthumb 7.26925 56.4754
rfemur -32.9337 2.31742 27.4401
rtibia 37.9934
rfoot -12.2526 -4.49614
rtoes -1.2936
lfemur -7.21988 -13.5449 -13.4045
ltibia 38.8072
lfoot -2.10777 -23.9648
ltoes -8.01414
2967
root 13.0616 17.984 -8.83286 7.27331 21.2503 -2.71678
lowerback 1.5682 5.28929 1.61743
upperback 2.51444 7.05166 0.723366
thorax 1.81059 3.54691 -0.146074
lowerneck -4.9221 15.7415 -1.25234
upperneck 33.5523 27.4498 -9.05362
head 13.5787 11.2996 0.411457
rclavicle 1.14301e-014 7.55382e-015
rhumerus -30.6512 -11.5324 -72.8717
rradius 46.4241
rwrist -21.964
rhand -27.3831 11.6666
rfingers 7.12502
rthumb -0.79014 -18.3117
lclavicle 1.14301e-014 7.55382e-015
lhumerus -42.1218 17.8569 80.008
lradius 37.4152
lwrist 8.34294
lhand -19.9058 27.0016
lfingers 7.12502
lthumb 6.43078 56.8839
rfemur -33.6509 2.25529 27.2678
rtibia 38.1105
rfoot -12.0206 -4.41696
rtoes -0.580668
lfemur -6.69286 -14.0242 -13.7361
ltibia 37.8272
lfoot -6.96964 -22.1215
ltoes -15.6324
2968
root 13.046 17.9495 -8.98507 7.41803 21.1299 -2.61095
lowerback 1.59068 5.31486 1.46083
upperback 2.61923 7.08406 0.760404
thorax 1.88269 3.5607 -0.0196157
lowerneck -5.53048 15.886 -1.35906
upperneck 33.8464 27.756 -8.90517
head 13.8114 11.3712 0.600268
rclavicle 5.03919e-014 -1.19271e-015
rhumerus -30.8579 -11.8625 -72.8199
rradius 46.7523
rwrist -21.7267
rhand -27.5006 11.1193
rfingers 7.12502
rthumb -0.903604 -18.8585
lclavicle 5.03919e-014 -1.19271e-015
lhumerus -41.5367 17.5164 80.4617
lradius 37.6398
lwrist 8.38466
lhand -20.185 27.0726
lfingers 7.12502
lthumb 6.16122 56.963
rfemur -34.3859 2.41073 26.9607
rtibia 38.2155
rfoot -11.6552 -4.31385
rtoes 0.251539
lfemur -6.25903 -14.2018 -14.1484
ltibia 37.0144
lfoot -10.7383 -19.5732
ltoes -20.9566
2969
root 13.0273 17.9186 -9.13914 7.54916 21.0253 -2.67138
lowerback 1.55723 5.28546 1.42164
upperback 2.72484 7.04185 0.8598
thorax 1.9923 3.53861 0.111917
lowerneck -5.57769 15.9001 -1.41107
upperneck 33.6492 27.8162 -9.14321
head 13.7781 11.3758 0.533229
rclavicle -5.30755e-014 1.19271e-015
rhumerus -31.3249 -12.361 -72.762
rradius 47.7565
rwrist -21.1578
rhand -27.0965 10.3437
rfingers 7.12502
rthumb -0.513295 -19.6355
lclavicle -5.30755e-014 1.19271e-015
lhumerus -40.9852 17.463 80.8802
lradius 37.9297
lwrist 8.53521
lhand -20.0179 26.7975
lfingers 7.12502
lthumb 6.3225 56.6832
rfemur -35.1375 2.47981 26.852
rtibia 38.2282
rfoot -11.2028 -4.08919
rtoes 0.0958507
lfemur -6.16101 -14.0796 -14.341
ltibia 36.3487
lfoot -13.0488 -17.3888
ltoes -22.0848
2970
root 13.0139 17.9012 -9.29429 7.66772 20.9352 -2.61737
lowerback 1.72537 5.21851 1.36177
upperback 2.71989 6.95504 0.887824
thorax 1.88169 3.49367 0.154474
lowerneck -5.52526 15.8587 -1.3762
upperneck 33.5949 27.7835 -9.30415
head 13.7806 11.3525 0.462611
rclavicle 1.24439e-013 -8.34896e-015
rhumerus -31.1526 -12.37 -72.8232
rradius 47.4287
rwrist -20.7823
rhand -27.1721 9.93845
rfingers 7.12502
rthumb -0.586265 -20.0405
lclavicle 1.24439e-013 -8.34896e-015
lhumerus -40.6228 17.4069 81.1365
lradius 38.2224
lwrist 8.5728
lhand -19.3428 26.3654
lfingers 7.12502
lthumb 6.97423 56.2305
rfemur -35.7981 2.36138 26.6355
rtibia 38.1682
rfoot -10.7286 -3.71548
rtoes 0.565518
lfemur -6.11883 -13.8911 -14.6714
ltibia 35.7182
lfoot -14.4356 -15.8382
ltoes -19.8471
2971
root 12.9914 17.888 -9.44017 7.76547 20.6931 -2.61687
lowerback 1.83463 5.17455 1.16967
upperback 2.67544 6.89749 0.895892
thorax 1.75057 3.46092 0.252314
lowerneck -5.4007 15.8567 -0.908561
upperneck 33.6161 27.8259 -9.61927
head 13.9075 11.3834 0.300608
rclavicle -2.71341e-014 -1.15295e-014
rhumerus -30.8309 -12.1232 -73.0863
rradius 46.8875
rwrist -20.3526
rhand -27.4645 9.31145
rfingers 7.12502
rthumb -0.868707 -20.6665
lclavicle -2.71341e-014 -1.15295e-014
lhumerus -40.3271 16.9605 81.4405
lradius 38.7693
lwrist 9.47201
lhand -19.5992 27.1007
lfingers 7.12502
lthumb 6.72675 56.9738
rfemur -36.4052 2.61598 26.4251
rtibia 38.0608
rfoot -10.1945 -3.4881
rtoes 1.50951
lfemur -6.06902 -13.4731 -14.8923
ltibia 35.0888
lfoot -15.774 -14.3611
ltoes -18.8993
2972
root 12.9695 17.876 -9.58973 7.75877 20.4002 -2.70188
lowerback 2.0579 5.13228 1.13055
upperback 2.7054 6.84364 0.929419
thorax 1.64784 3.43309 0.286761
lowerneck -5.40934 15.8637 -0.682559
upperneck 33.6151 27.8926 -9.86861
head 14.0036 11.4006 0.20373
rclavicle -1.76819e-013 1.82882e-014
rhumerus -30.6959 -12.0633 -73.3566
rradius 46.4898
rwrist -19.8832
rhand -27.517 9.38046
rfingers 7.12502
rthumb -0.919466 -20.5973
lclavicle -1.76819e-013 1.82882e-014
lhumerus -39.9766 17.1533 81.3779
lradius 38.9115
lwrist 8.88117
lhand -19.8681 26.81
lfingers 7.12502
lthumb 6.4672 56.6912
rfemur -36.8993 2.74756 26.3552
rtibia 37.9655
rfoot -9.66824 -3.17861
rtoes 1.92317
lfemur -5.938 -12.9964 -15.0416
ltibia 34.4282
lfoot -16.9818 -12.8195
ltoes -18.8704
2973
root 12.9502 17.8641 -9.73836 7.92174 20.0308 -2.54591
lowerback 2.2048 5.1944 0.9464
upperback 2.76805 6.92644 0.876458
thorax 1.61559 3.47187 0.32156
lowerneck -5.47112 15.8013 -0.60593
upperneck 33.5513 27.8429 -10.0656
head 14.0375 11.3619 0.125248
rclavicle 1.17879e-013 7.95139e-016
rhumerus -30.8145 -12.2757 -73.5942
rradius 46.2775
rwrist -19.8533
rhand -27.7848 10.3516
rfingers 7.12502
rthumb -1.17811 -19.6249
lclavicle 1.17879e-013 7.95139e-016
lhumerus -39.3669 16.8609 81.64
lradius 39.0886
lwrist 9.12176
lhand -20.3708 27.0238
lfingers 7.12502
lthumb 5.98183 56.9194
rfemur -37.5359 2.81907 26.047
rtibia 37.8901
rfoot -9.08868 -2.78155
rtoes 1.30637
lfemur -5.95081 -12.4735 -15.4421
ltibia 33.7673
lfoot -17.765 -11.5251
ltoes -17.9149
2974
root 12.9323 17.8527 -9.88286 8.10904 19.7664 -2.30444
lowerback 2.13335 5.18116 0.613899
upperback 2.92422 6.90372 0.890952
thorax 1.77502 3.45455 0.533163
lowerneck -5.34816 15.8092 -0.590132
upperneck 33.2702 27.8876 -10.4159
head 13.9646 11.3731 -0.0109866
rclavicle -3.93594e-014 1.74931e-014
rhumerus -30.5069 -12.6553 -73.6639
rradius 45.8806
rwrist -19.2257
rhand -27.4013 9.47523
rfingers 7.12502
rthumb -0.807649 -20.503
lclavicle -3.93594e-014 1.74931e-014
lhumerus -38.6849 16.7791 81.9746
lradius 39.2709
lwrist 9.32324
lhand -19.2997 26.2958
lfingers 7.12502
lthumb 7.01584 56.1595
rfemur -38.1468 2.78771 25.6269
rtibia 37.7864
rfoot -8.6443 -2.28388
rtoes 1.93982
lfemur -6.00169 -12.0583 -15.8891
ltibia 33.1357
lfoot -18.7477 -10.0871
ltoes -18.6751
2975
root 12.9258 17.8469 -10.0389 8.26864 19.8405 -2.20342
lowerback 2.26487 5.03823 0.751903
upperback 2.90707 6.71625 0.841297
thorax 1.70628 3.36403 0.395184
lowerneck -5.08663 15.8191 -0.40604
upperneck 33.093 27.9173 -10.7239
head 13.9273 11.4012 -0.165438
rclavicle -8.10048e-014 1.35174e-014
rhumerus -30.3906 -12.8825 -73.7909
rradius 45.5207
rwrist -18.7634
rhand -26.8557 8.10921
rfingers 7.12502
rthumb -0.280703 -21.8703
lclavicle -8.10048e-014 1.35174e-014
lhumerus -38.2885 16.3809 82.309
lradius 39.7977
lwrist 10.3261
lhand -19.3506 26.9151
lfingers 7.12502
lthumb 6.96669 56.7804
rfemur -38.7339 2.27683 25.3835
rtibia 37.6598
rfoot -8.47426 -1.58373
rtoes 1.40055
lfemur -6.1669 -12.0677 -16.1434
ltibia 32.523
lfoot -19.6812 -8.85374
ltoes -19.0906
2976
root 12.9113 17.8381 -10.1819 8.39594 19.5668 -2.24877
lowerback 2.24396 5.03362 0.796674
upperback 2.89292 6.71032 0.825736
thorax 1.71038 3.3619 0.356433
lowerneck -4.89546 15.786 -0.205027
upperneck 32.9974 27.8934 -10.9868
head 13.9303 11.4005 -0.305124
rclavicle 9.48203e-014 -1.78906e-014
rhumerus -30.4051 -12.9275 -74.062
rradius 45.1359
rwrist -18.51
rhand -26.7757 7.68534
rfingers 7.12502
rthumb -0.203456 -22.2943
lclavicle 9.48203e-014 -1.78906e-014
lhumerus -37.9482 16.2944 82.2337
lradius 39.9623
lwrist 9.75565
lhand -19.3836 27.0422
lfingers 7.12502
lthumb 6.93483 56.9086
rfemur -39.321 2.27039 25.2593
rtibia 37.4941
rfoot -8.33349 -1.10454
rtoes -0.948334
lfemur -6.40585 -11.9703 -16.2207
ltibia 32.0025
lfoot -20.3218 -7.97772
ltoes -18.7327
2977
root 12.8926 17.8293 -10.3135 8.54059 19.1683 -2.05617
lowerback 2.26123 5.05715 0.495097
upperback 2.88575 6.73933 0.760336
thorax 1.66647 3.37137 0.451313
lowerneck -4.82244 15.7541 -0.196352
upperneck 32.9743 27.8211 -10.9933
head 13.9004 11.3737 -0.329908
rclavicle -1.30204e-014 1.51076e-014
rhumerus -30.4597 -12.9565 -74.402
rradius 44.6807
rwrist -18.3906
rhand -26.9635 7.94106
rfingers 7.12502
rthumb -0.384837 -22.0383
lclavicle -1.30204e-014 1.51076e-014
lhumerus -37.638 16.1476 82.1979
lradius 40.207
lwrist 9.924
lhand -19.3422 26.6149
lfingers 7.12502
lthumb 6.97481 56.4799
rfemur -39.8212 2.42171 24.8906
rtibia 37.3176
rfoot -8.34678 -0.802067
rtoes -3.63064
lfemur -6.60899 -11.7599 -16.5126
ltibia 31.5369
lfoot -20.9105 -7.40673
ltoes -18.2474
2978
root 12.8766 17.8166 -10.4489 8.6119 18.8528 -2.06035
lowerback 2.28744 5.05605 0.41967
upperback 2.88961 6.73693 0.776986
thorax 1.64516 3.36859 0.506649
lowerneck -4.78416 15.7042 -0.207086
upperneck 33.0649 27.7627 -10.9985
head 13.9295 11.3396 -0.34244
rclavicle 1.46107e-013 -2.26615e-014
rhumerus -30.5258 -13.1041 -74.5819
rradius 44.2511
rwrist -17.9693
rhand -26.6775 8.3326
rfingers 7.12502
rthumb -0.108613 -21.6471
lclavicle 1.46107e-013 -2.26615e-014
lhumerus -37.2958 15.7242 82.4171
lradius 40.7191
lwrist 11.0934
lhand -19.3499 26.8247
lfingers 7.12502
lthumb 6.96735 56.69
rfemur -40.2247 2.5458 24.6982
rtibia 37.0922
rfoot -8.61567 -0.586457
rtoes -6.04171
lfemur -6.87441 -11.6156 -16.5602
ltibia 31.1565
lfoot -21.4471 -7.15037
ltoes -17.4732
2979
root 12.8618 17.8104 -10.5823 8.76595 18.4232 -2.02081
lowerback 2.30085 5.09897 0.358552
upperback 2.82098 6.79391 0.730217
thorax 1.56542 3.39629 0.486414
lowerneck -4.69076 15.6421 -0.142272
upperneck 33.1534 27.6998 -11.0654
head 13.971 11.3084 -0.391312
rclavicle 1.11121e-013 -2.62396e-014
rhumerus -30.7797 -13.3332 -74.7412
rradius 44.0475
rwrist -17.2071
rhand -26.3973 7.96446
rfingers 7.12502
rthumb 0.161978 -22.0152
lclavicle 1.11121e-013 -2.62396e-014
lhumerus -37.0628 15.8353 82.1702
lradius 40.8698
lwrist 10.5718
lhand -19.3018 27.312
lfingers 7.12502
lthumb 7.01379 57.1758
rfemur -40.7329 2.67021 24.4587
rtibia 36.9749
rfoot -9.12527 -0.335112
rtoes -7.85097
lfemur -7.1813 -11.4575 -16.6868
ltibia 30.7337
lfoot -21.8048 -6.72664
ltoes -17.2237
2980
root 12.8438 17.8085 -10.7058 8.61637 17.9075 -2.41502
lowerback 2.34119 5.18131 0.627776
upperback 2.84615 6.90539 0.852706
thorax 1.58515 3.4556 0.461021
lowerneck -4.71681 15.5912 -0.237438
upperneck 33.2354 27.67 -11.0996
head 14.0061 11.2713 -0.39278
rclavicle 2.92213e-014 2.3059e-014
rhumerus -31.1238 -13.2414 -74.9833
rradius 44.0591
rwrist -17.5024
rhand -26.5667 8.66759
rfingers 7.12502
rthumb -0.00163903 -21.3122
lclavicle 2.92213e-014 2.3059e-014
lhumerus -36.8406 15.7045 82.1468
lradius 41.1939
lwrist 10.528
lhand -19.5416 27.7488
lfingers 7.12502
lthumb 6.78239 57.6201
rfemur -41.0115 3.02322 24.6596
rtibia 36.8808
rfoot -9.68031 -0.272621
rtoes -9.77
lfemur -7.26235 -11.1243 -16.3844
ltibia 30.3453
lfoot -22.2342 -6.28028
ltoes -16.8796
